<svg width="52" height="40" viewBox="0 0 52 40" fill="none" xmlns="http://www.w3.org/2000/svg">
<path d="M44.1966 3.39286C44.1376 3.33333 44.1081 3.30357 44.1081 3.30357C40.6859 1.75595 37.1457 0.654762 33.4875 0C33.4285 0 33.3695 0.0297617 33.3105 0.0892855C32.8385 0.982143 32.396 1.90476 31.983 2.85714C28.0297 2.20238 24.0765 2.20238 20.1233 2.85714C19.7103 1.90476 19.2678 0.982143 18.7958 0.0892855C18.7368 0.0297617 18.6778 0 18.6188 0C14.9606 0.654762 11.4204 1.75595 7.9982 3.30357C7.9982 3.30357 7.9687 3.33333 7.90969 3.39286C4.60552 8.45238 2.3634 13.4821 1.18334 18.4821C0.0622812 23.4226 -0.262236 28.3333 0.209789 33.2143C0.268792 33.2738 0.298293 33.3333 0.298293 33.3929C4.2515 36.3095 8.58823 38.5119 13.3085 40C13.3675 40 13.4265 39.9702 13.4855 39.9107C14.4885 38.5417 15.3736 37.0833 16.1406 35.5357C16.1406 35.5357 16.1406 35.506 16.1406 35.4464C16.1406 35.3869 16.1111 35.3571 16.0521 35.3571C14.636 34.8214 13.279 34.1667 11.9809 33.3929C11.9219 33.3333 11.8924 33.2738 11.8924 33.2143C11.8924 33.1548 11.9219 33.125 11.9809 33.125C12.2759 32.8869 12.5414 32.6786 12.7774 32.5C12.8364 32.4405 12.8955 32.4107 12.9545 32.4107C17.2617 34.375 21.6279 35.3571 26.0531 35.3571C30.5374 35.3571 34.9036 34.375 39.1518 32.4107C39.2108 32.4107 39.2403 32.4405 39.2403 32.5C39.5353 32.6786 39.8304 32.8869 40.1254 33.125C40.1254 33.125 40.1254 33.1548 40.1254 33.2143C40.1254 33.2738 40.0959 33.3333 40.0369 33.3929C38.7388 34.1667 37.4112 34.8214 36.0542 35.3571C35.9952 35.3571 35.9362 35.3869 35.8772 35.4464C35.8772 35.506 35.9067 35.5357 35.9657 35.5357C36.7327 37.0833 37.6177 38.5417 38.6208 39.9107C38.6208 39.9702 38.6798 40 38.7978 40C43.4591 38.5119 47.7958 36.3095 51.808 33.3929C51.808 33.3333 51.808 33.2738 51.808 33.2143C52.752 21.9643 50.2149 12.0238 44.1966 3.39286ZM17.3797 27.3214C16.0816 27.2619 14.9901 26.7262 14.105 25.7143C13.22 24.7024 12.7774 23.4524 12.7774 21.9643C12.7774 20.4762 13.22 19.2262 14.105 18.2143C14.9901 17.2619 16.0816 16.756 17.3797 16.6964C18.7368 16.756 19.8578 17.2917 20.7429 18.3036C21.6279 19.256 22.0704 20.4762 22.0704 21.9643C22.0704 23.4524 21.6279 24.7024 20.7429 25.7143C19.8578 26.7262 18.7368 27.2619 17.3797 27.3214ZM34.7266 27.3214C33.4285 27.2619 32.337 26.7262 31.4519 25.7143C30.5669 24.7024 30.0949 23.4524 30.0358 21.9643C30.0949 20.4762 30.5374 19.2262 31.3634 18.2143C32.2485 17.2619 33.3695 16.756 34.7266 16.6964C36.0837 16.756 37.2047 17.2917 38.0898 18.3036C38.9158 19.256 39.3583 20.4762 39.4173 21.9643C39.3583 23.4524 38.8863 24.7024 38.0013 25.7143C37.1752 26.7262 36.0837 27.2619 34.7266 27.3214Z" fill="white"/>
</svg>
