<svg width="40" height="40" viewBox="0 0 40 40" fill="none" xmlns="http://www.w3.org/2000/svg">
<path d="M13.3871 32.2106C13.3333 32.4314 13.1989 32.5418 12.9839 32.5418C12.6613 32.5418 12.5 32.4314 12.5 32.2106C12.5538 32.0449 12.6882 31.9621 12.9032 31.9621C13.172 31.9621 13.3333 32.0449 13.3871 32.2106ZM10.8871 31.8793C10.8333 32.045 10.9409 32.183 11.2097 32.2934C11.4785 32.3486 11.6398 32.2934 11.6935 32.1278C11.7473 31.9069 11.6398 31.7689 11.371 31.7137C11.1022 31.6585 10.9409 31.7137 10.8871 31.8793ZM14.4355 31.7137C14.1667 31.7689 14.0323 31.9069 14.0323 32.1278C14.086 32.2934 14.2473 32.3762 14.5161 32.3762C14.7849 32.2658 14.9194 32.1278 14.9194 31.9621C14.8656 31.7965 14.7043 31.7137 14.4355 31.7137ZM19.7581 0C14.0054 0.110405 9.30107 2.04249 5.64516 5.79624C1.98925 9.55 0.107527 14.3526 0 20.2041C0.0537634 24.8962 1.3172 29.0088 3.79032 32.5418C6.26344 36.0747 9.56989 38.5588 13.7097 39.9941C14.6774 40.0493 15.1344 39.7181 15.0806 39.0004C15.0806 38.7796 15.0806 38.3656 15.0806 37.7584C15.0806 36.4887 15.0806 35.2191 15.0806 33.9494C14.9731 33.9494 14.4624 34.0046 13.5484 34.115C12.5806 34.1702 11.5591 34.0598 10.4839 33.7838C9.4086 33.4526 8.65591 32.6798 8.22581 31.4653C8.22581 31.3549 8.01075 30.9133 7.58065 30.1405C7.15054 29.4228 6.6129 28.8432 5.96774 28.4016C5.86022 28.3464 5.64516 28.1256 5.32258 27.7392C4.94624 27.408 5.21505 27.2147 6.12903 27.1595C6.1828 27.1043 6.55914 27.2147 7.25806 27.4908C7.95699 27.7116 8.60215 28.3188 9.19355 29.3124C10.1613 30.8029 11.2097 31.5481 12.3387 31.5481C13.5215 31.5481 14.4355 31.3825 15.0806 31.0513C15.2957 29.7265 15.7258 28.788 16.371 28.236C14.0054 28.1256 11.9355 27.5184 10.1613 26.4143C8.3871 25.3655 7.44624 22.909 7.33871 19.0448C7.33871 17.9408 7.5 17.0299 7.82258 16.3123C8.0914 15.5947 8.54839 14.9046 9.19355 14.2422C9.08602 13.911 8.97849 13.2486 8.87097 12.2549C8.76344 11.2613 8.95161 10.0468 9.43548 8.61156C10.4032 8.44596 11.5323 8.74957 12.8226 9.5224C14.1667 10.24 14.8925 10.6817 15 10.8473C16.6129 10.3504 18.3065 10.102 20.0806 10.102C21.8011 10.102 23.4946 10.3504 25.1613 10.8473C25.1613 10.7921 25.5108 10.5436 26.2097 10.102C26.8548 9.66041 27.6075 9.27399 28.4677 8.94278C29.328 8.55636 30.0806 8.44596 30.7258 8.61156C31.2097 10.0468 31.3979 11.2613 31.2903 12.2549C31.1828 13.2486 31.0484 13.911 30.8871 14.2422C31.5323 14.9046 32.043 15.5947 32.4194 16.3123C32.7957 17.0299 32.9839 17.9408 32.9839 19.0448C32.9301 21.6945 32.4731 23.6542 31.6129 24.9239C30.6989 26.1383 29.543 26.9663 28.1452 27.408C26.7473 27.8496 25.2688 28.1256 23.7097 28.236C24.5699 28.8432 25.0269 30.1129 25.0806 32.045C25.0806 34.0874 25.0806 35.9091 25.0806 37.51C25.0806 38.2276 25.0806 38.7244 25.0806 39.0004C25.0269 39.7181 25.4839 40.0493 26.4516 39.9941C30.5376 38.5588 33.8172 36.0747 36.2903 32.5418C38.7097 29.0088 39.9462 24.8962 40 20.2041C39.9462 16.3399 39.0323 12.8897 37.2581 9.85361C35.4301 6.81749 33.0108 4.41619 30 2.64971C26.9355 0.938439 23.5215 0.0552023 19.7581 0ZM7.82258 28.5672C7.71505 28.6776 7.74194 28.8156 7.90323 28.9812C8.06452 29.1468 8.19893 29.1744 8.30645 29.064C8.41398 28.9536 8.3871 28.8156 8.22581 28.65C8.11828 28.4844 7.98387 28.4568 7.82258 28.5672ZM6.93548 27.9048C6.93548 28.0152 7.01613 28.1256 7.17742 28.236C7.33871 28.2912 7.44624 28.2636 7.5 28.1532C7.55376 28.0428 7.5 27.9324 7.33871 27.822C7.17742 27.7668 7.04301 27.7944 6.93548 27.9048ZM9.59677 30.8029C9.48925 30.9685 9.51613 31.1617 9.67742 31.3825C9.89247 31.5481 10.0806 31.5757 10.2419 31.4653C10.2957 31.2997 10.2419 31.1065 10.0806 30.8857C9.86559 30.7201 9.7043 30.6925 9.59677 30.8029ZM8.62903 29.6437C8.52151 29.7541 8.52151 29.9197 8.62903 30.1405C8.79032 30.3061 8.95161 30.3613 9.1129 30.3061C9.22043 30.1957 9.22043 30.0301 9.1129 29.8093C8.95161 29.5884 8.79032 29.5332 8.62903 29.6437Z" fill="white"/>
</svg>
