<svg width="40" height="40" viewBox="0 0 40 40" fill="none" xmlns="http://www.w3.org/2000/svg">
<path d="M20 0C16.2903 0.0537634 12.9301 0.967742 9.91936 2.74194C6.9086 4.51613 4.51613 6.9086 2.74194 9.91935C0.967742 12.9301 0.0537634 16.2903 0 20C0.0537634 23.7097 0.967742 27.0699 2.74194 30.0806C4.51613 33.0914 6.9086 35.4839 9.91936 37.2581C12.9301 39.0323 16.2903 39.9462 20 40C23.7097 39.9462 27.0699 39.0323 30.0806 37.2581C33.0914 35.4839 35.4839 33.0914 37.2581 30.0806C39.0323 27.0699 39.9462 23.7097 40 20C39.9462 16.2903 39.0323 12.9301 37.2581 9.91935C35.4839 6.9086 33.0914 4.51613 30.0806 2.74194C27.0699 0.967742 23.7097 0.0537634 20 0ZM29.2742 13.629C29.1667 14.7043 28.9785 16.1559 28.7097 17.9839C28.4409 19.7581 28.1452 21.5591 27.8226 23.3871C27.5 25.2151 27.2312 26.7473 27.0161 27.9839C26.6935 29.3817 26.2366 30.0538 25.6452 30C24.7849 30 23.9516 29.6774 23.1452 29.0323C22.9301 28.871 22.7151 28.7097 22.5 28.5484C21.586 27.957 20.8065 27.4194 20.1613 26.9355C19.5161 26.5054 18.7903 26.0484 17.9839 25.5645C17.1774 24.9731 16.8548 24.4892 17.0161 24.1129C17.1237 23.6828 17.4462 23.2527 17.9839 22.8226C18.1452 22.6613 18.3065 22.5 18.4677 22.3387C18.5215 22.2312 18.8172 21.9624 19.3548 21.5323C20.2151 20.7258 21.1559 19.8118 22.1774 18.7903C23.2527 17.8226 23.8441 17.2043 23.9516 16.9355C24.0054 16.8817 23.9785 16.7742 23.871 16.6129C23.7097 16.5054 23.5753 16.4785 23.4677 16.5323C23.2527 16.586 20.4301 18.4677 15 22.1774C14.1935 22.7151 13.4677 22.957 12.8226 22.9032C12.4462 22.9032 11.9624 22.8226 11.371 22.6613C10.7796 22.5538 10.2419 22.3925 9.75806 22.1774C9.59677 22.1237 9.43548 22.0968 9.27419 22.0968C8.14516 21.828 7.58065 21.4247 7.58065 20.8871C7.63441 20.5108 8.11828 20.1344 9.03226 19.7581C14.8925 17.2312 18.7903 15.5645 20.7258 14.7581C23.414 13.629 25.2419 12.9032 26.2097 12.5806C27.2312 12.2043 27.8763 12.0161 28.1452 12.0161C28.414 12.0161 28.6828 12.0968 28.9516 12.2581C29.1129 12.4194 29.2204 12.6075 29.2742 12.8226C29.2742 13.0914 29.2742 13.3602 29.2742 13.629Z" fill="white"/>
</svg>
